HIERARCHY
ROOT Pelvis
{
	OFFSET 0.000000 0.000000 0.000000
	CHANNELS 6 Xposition Yposition Zposition Zrotation Yrotation Xrotation 
	JOINT Left_hip
	{
		OFFSET 0.076090 -0.089427 -0.010735
		CHANNELS 3 Zrotation Yrotation Xrotation
		JOINT Left_knee
		{
			OFFSET 0.030200 -0.359518 -0.003501
			CHANNELS 3 Zrotation Yrotation Xrotation
			JOINT Left_ankle
			{
				OFFSET -0.011005 -0.371022 -0.045888
				CHANNELS 3 Zrotation Yrotation Xrotation
				JOINT Left_foot
				{
					OFFSET 0.023930 -0.052103 0.111084
					CHANNELS 3 Zrotation Yrotation Xrotation
					End Site
					{
						OFFSET 0.000000 0.000000 0.000000
					}
				}
			}
		}
	}
	JOINT Right_hip
	{
		OFFSET -0.073836 -0.088112 -0.007709
		CHANNELS 3 Zrotation Yrotation Xrotation
		JOINT Right_knee
		{
			OFFSET -0.035715 -0.367809 -0.006536
			CHANNELS 3 Zrotation Yrotation Xrotation
			JOINT Right_ankle
			{
				OFFSET 0.013718 -0.371958 -0.043815
				CHANNELS 3 Zrotation Yrotation Xrotation
				JOINT Right_foot
				{
					OFFSET -0.021936 -0.046387 0.114542
					CHANNELS 3 Zrotation Yrotation Xrotation
					End Site
					{
						OFFSET 0.000000 0.000000 0.000000
					}
				}
			}
		}
	}
	JOINT Spine1
	{
		OFFSET -0.001865 0.102064 -0.019455
		CHANNELS 3 Zrotation Yrotation Xrotation
		JOINT Spine2
		{
			OFFSET 0.003082 0.129260 -0.001938
			CHANNELS 3 Zrotation Yrotation Xrotation
			JOINT Spine3
			{
				OFFSET 0.001104 0.048093 0.026561
				CHANNELS 3 Zrotation Yrotation Xrotation
				JOINT Neck
				{
					OFFSET -0.002010 0.204222 -0.047183
					CHANNELS 3 Zrotation Yrotation Xrotation
					JOINT Head
					{
						OFFSET 0.005050 0.063649 0.048489
						CHANNELS 3 Zrotation Yrotation Xrotation
						End Site
						{
							OFFSET 0.000000 0.000000 0.000000
						}
					}
				}
				JOINT Left_collar
				{
					OFFSET 0.072979 0.114065 -0.031633
					CHANNELS 3 Zrotation Yrotation Xrotation
					JOINT Left_shoulder
					{
						OFFSET 0.083419 0.032092 -0.006530
						CHANNELS 3 Zrotation Yrotation Xrotation
						JOINT Left_elbow
						{
							OFFSET 0.239393 -0.012014 -0.025060
							CHANNELS 3 Zrotation Yrotation Xrotation
							JOINT Left_wrist
							{
								OFFSET 0.227297 0.008116 0.000384
								CHANNELS 3 Zrotation Yrotation Xrotation
								JOINT Left_palm
								{
									OFFSET 0.074607 -0.009248 -0.012277
									CHANNELS 3 Zrotation Yrotation Xrotation
									End Site
									{
										OFFSET 0.000000 0.000000 0.000000
									}
								}
							}
						}
					}
				}
				JOINT Right_collar
				{
					OFFSET -0.074980 0.111880 -0.037894
					CHANNELS 3 Zrotation Yrotation Xrotation
					JOINT Right_shoulder
					{
						OFFSET -0.087565 0.034353 -0.009323
						CHANNELS 3 Zrotation Yrotation Xrotation
						JOINT Right_elbow
						{
							OFFSET -0.236838 -0.013719 -0.019794
							CHANNELS 3 Zrotation Yrotation Xrotation
							JOINT Right_wrist
							{
								OFFSET -0.235053 0.006433 -0.003853
								CHANNELS 3 Zrotation Yrotation Xrotation
								JOINT Right_palm
								{
									OFFSET -0.075499 -0.006894 -0.009792
									CHANNELS 3 Zrotation Yrotation Xrotation
									End Site
									{
										OFFSET 0.000000 0.000000 0.000000
									}
								}
							}
						}
					}
				}
			}
		}
	}
}
MOTION
Frames: 16
Frame Time: 0.100000
0.000000 0.000000 0.000000 175.030965 27.654105 -14.771658 0.605687 -0.893035 8.689828 -1.541236 -11.726336 -7.588028 -0.092846 7.266122 -4.566543 2.709281 7.522521 -4.589065 1.429806 0.612619 9.351614 2.247269 8.974692 -6.449896 3.926978 -10.880836 -9.714153 -6.349066 8.089650 6.945083 1.454332 1.045137 -0.502159 1.929398 -2.529753 2.512552 0.579792 -1.900263 0.774915 1.684626 1.943895 -3.978414 -3.827819 -5.237849 8.595661 -30.913318 -1.585624 4.689878 -52.876749 -7.614198 12.599976 0.057119 -17.381056 14.989123 -9.115858 -1.393761 0.826734 -11.001382 -5.106228 -11.646752 31.340829 4.464740 4.768760 48.632443 3.417788 16.440815 -4.511105 16.688695 1.882266 7.877175 -1.330988 -0.371069 13.049169 7.713426 -7.023779 
0.000041 0.000129 -0.001528 175.009232 27.540958 -14.841606 0.584353 -0.917704 8.601093 -1.571197 -11.664475 -7.446233 -0.038870 7.323748 -4.551330 2.695545 7.550308 -4.609633 1.443657 0.649801 9.252384 2.230614 8.991244 -6.336135 3.934790 -10.882332 -9.651145 -6.374609 8.099157 6.907728 1.456960 1.055301 -0.396789 1.969839 -2.498507 2.607678 0.613319 -1.873119 0.835586 1.648968 1.992022 -3.773550 -3.864702 -5.139489 8.715656 -30.876184 -1.575076 4.773299 -52.911665 -7.590899 12.593223 0.066824 -17.473834 14.941972 -9.114572 -1.412127 0.703359 -10.992314 -5.104842 -11.643300 31.300452 4.485116 4.855041 48.592971 3.457774 16.428052 -4.481968 16.753118 1.797830 7.891284 -1.339185 -0.484385 13.061582 7.705403 -7.036158 
-0.000021 0.000236 -0.002702 174.963503 27.541050 -14.879716 0.606681 -0.941966 8.556129 -1.607016 -11.640610 -7.461050 -0.051346 7.322304 -4.507178 2.717184 7.537579 -4.608728 1.430709 0.634120 9.204441 2.243514 8.954494 -6.351009 3.958747 -10.818584 -9.566844 -6.404673 8.036959 6.882992 1.443900 1.113442 -0.311310 1.969796 -2.452260 2.684068 0.635268 -1.830148 0.854111 1.681930 1.893816 -3.821280 -3.749050 -5.210487 8.608063 -30.877492 -1.573997 4.824181 -53.112805 -7.576686 12.638359 0.115773 -17.577286 14.876413 -9.124458 -1.474747 0.520165 -10.954588 -5.084222 -11.604561 31.274519 4.528688 4.947322 48.738495 3.418967 16.394878 -4.465172 16.633303 1.703594 7.972015 -1.362206 -0.657943 13.018551 7.682083 -7.037482 
0.000015 0.000317 -0.003901 174.901578 27.569190 -14.928726 0.756401 -0.961162 8.530755 -1.779314 -11.697514 -7.531477 -0.185437 7.239642 -4.398273 2.803630 7.534316 -4.648324 1.430581 0.640553 9.026795 2.303880 8.879030 -6.108453 3.960951 -10.767931 -9.589779 -6.433080 7.970152 6.825412 1.460149 1.120955 -0.201715 1.971955 -2.420365 2.740342 0.659310 -1.800193 0.845710 1.657342 1.809389 -4.001960 -3.659912 -5.358335 8.344684 -30.832878 -1.609025 4.800680 -53.230431 -7.589364 12.620145 0.228214 -17.618670 14.747294 -9.058373 -1.513024 0.407921 -10.903237 -5.054069 -11.597489 31.188848 4.581352 4.946927 48.825484 3.411807 16.325886 -4.533752 16.712935 1.651438 7.954767 -1.344708 -0.759606 12.964847 7.652860 -7.021814 
0.001102 0.000178 -0.004534 174.882796 27.485846 -14.729727 1.191239 -0.948068 8.459785 -2.185797 -11.715181 -7.986223 -0.627998 7.095712 -4.081393 3.134951 7.333927 -4.606826 1.414880 0.666666 8.528343 2.457720 8.808018 -5.758561 4.118048 -10.565328 -9.566334 -6.755400 7.777021 6.587723 1.453969 1.170132 0.060489 1.928878 -2.336929 2.799121 0.732458 -1.651102 0.723668 1.626317 1.375740 -5.427457 -3.021908 -6.012823 6.976426 -30.382844 -1.935486 4.825844 -53.399841 -7.387574 12.689203 0.174505 -17.968406 14.848617 -8.854477 -1.860250 0.036527 -10.806732 -4.947768 -11.621351 30.647051 4.991725 5.090753 49.099820 3.154636 16.182081 -4.360569 16.943530 2.044522 7.996828 -1.230375 -1.066872 12.782677 7.550825 -7.090581 
0.003413 0.000081 -0.005164 174.790068 27.684621 -14.396351 1.444473 -1.126847 7.719258 -2.377269 -11.577466 -7.593482 -1.114708 7.086494 -4.082921 3.634994 7.008349 -4.585053 1.523607 0.626408 7.995229 2.550022 8.658372 -5.711738 4.580350 -10.523247 -9.376628 -7.603796 7.630844 6.155910 1.473273 1.146088 0.670798 1.926888 -2.363670 2.560624 0.943217 -1.624813 0.668633 1.647100 0.492494 -7.714052 -2.087258 -6.979763 5.200938 -29.739365 -1.918814 4.801821 -53.880567 -6.861826 12.579790 0.453425 -18.342758 14.452781 -8.271018 -2.377037 -0.858251 -10.521076 -4.783598 -11.381926 29.845952 5.300670 5.025971 49.237265 2.674657 15.990359 -4.125648 17.005274 2.318898 7.851094 -1.054053 -1.475763 12.426421 7.366141 -7.013511 
0.007438 -0.000017 -0.006044 174.939406 27.602116 -13.788982 1.435805 -1.242570 6.903722 -2.264385 -11.343651 -7.413579 -2.084110 7.448604 -3.921509 4.904552 6.586261 -4.843267 1.560528 0.734891 7.072904 2.574128 8.628124 -5.359879 5.750047 -10.417030 -9.221233 -9.492217 7.635245 5.040928 1.728717 1.144919 1.619973 1.799468 -2.071195 2.089905 1.137942 -1.480276 0.976789 1.584842 0.005722 -10.270300 -1.324183 -7.552199 3.818017 -29.042494 -0.907094 4.349648 -55.051823 -5.973432 11.735652 2.109670 -16.250626 11.457257 -6.844648 -2.689874 -2.482125 -9.934406 -4.567012 -10.938397 28.833460 5.032949 4.681873 49.556353 2.247477 15.589836 -4.166737 15.600901 1.140348 7.297570 -0.953973 -2.340369 11.864169 6.985924 -6.798460 
0.011794 -0.000131 -0.006170 175.184717 28.091810 -13.083356 1.358792 -1.271023 5.857866 -2.226490 -11.312655 -6.983769 -3.411682 7.661132 -3.745958 6.629917 6.199934 -5.406469 1.407682 0.548177 6.478395 2.643167 8.610837 -5.650979 7.382227 -10.722077 -8.989724 -12.112082 8.063211 3.596333 2.160306 1.054623 2.570978 1.545033 -1.824645 1.675045 1.133493 -1.400387 1.676354 1.380904 0.052894 -12.886553 -1.025956 -7.637915 2.970999 -28.567379 1.092075 4.017077 -55.830260 -4.095733 10.708944 3.477737 -13.661150 9.137414 -5.229808 -2.847365 -3.627837 -9.589280 -4.510521 -10.850844 28.062581 3.900989 4.229933 49.664058 1.276581 15.182812 -4.215374 14.278761 0.001329 6.326196 -0.846915 -2.816025 11.650455 6.703215 -6.722054 
0.016235 -0.000909 -0.004620 175.453184 28.837841 -12.480231 1.197923 -1.308016 4.960540 -2.031934 -11.371189 -6.420543 -4.948696 7.977867 -3.369763 8.682613 5.500319 -6.497042 1.314202 0.395988 5.960899 2.676270 8.537647 -5.557705 8.966907 -11.051533 -8.833171 -14.857468 8.164253 2.072153 2.750757 0.866660 3.401911 1.329395 -1.579212 1.061161 1.115312 -1.403350 2.720634 0.616769 0.828557 -15.133033 -1.266225 -6.784057 2.706335 -27.386301 3.775600 4.041738 -57.082770 -1.318693 10.010537 3.908485 -11.410986 8.883887 -4.827408 -3.617006 -4.851252 -9.271277 -4.325176 -11.050636 26.950065 1.846493 3.976823 50.432719 -0.405699 14.564240 -4.198770 12.623488 -1.061639 5.802109 -0.536228 -4.252071 11.409775 6.261633 -6.705163 
0.020526 -0.001518 0.000414 175.772063 29.733737 -12.234288 0.929077 -1.301228 4.456109 -1.749438 -11.726689 -5.440250 -5.554894 8.258747 -3.558811 9.522993 4.927017 -7.150089 1.176326 0.065176 6.197638 2.840384 8.754272 -5.681415 9.577754 -11.481933 -9.044948 -15.944772 8.250298 1.368338 3.183155 0.698388 3.855906 1.332571 -1.580465 0.913526 1.195958 -1.602827 3.599367 -0.632386 2.043314 -16.427209 -2.277964 -5.315009 2.104264 -26.919500 6.076430 4.279668 -56.858166 1.478469 9.330561 3.326268 -8.584433 10.012585 -5.165820 -3.801434 -4.876697 -9.447427 -4.414137 -11.606152 27.092012 -0.295589 4.048099 50.023736 -2.345507 14.113357 -3.935105 10.465793 -1.174928 5.433569 -0.516500 -4.340736 11.803606 6.220852 -6.953368 
0.021939 -0.002500 0.005582 176.314307 31.520591 -12.710052 -0.607148 -1.722747 2.720215 -1.028165 -12.113617 -0.127501 -4.384748 8.173930 -5.203179 8.111436 4.841470 -7.699282 0.601663 -0.700112 7.742850 2.951274 8.670891 -6.045169 9.244136 -11.640339 -9.368628 -15.507160 8.170094 1.650466 4.117374 0.470166 4.697805 1.146361 -2.235074 0.926403 1.136400 -2.104395 4.161429 -4.403778 3.806512 -16.466831 -5.583066 -2.086422 1.157788 -26.977311 6.423185 4.277013 -55.988970 2.710593 8.670623 2.775796 -5.573028 11.895072 -6.437890 -2.928155 -3.750148 -10.078626 -4.639483 -11.628413 27.963505 -1.459965 4.368216 48.906315 -3.505665 13.578221 -4.055035 8.532800 -1.458401 5.246868 -0.794743 -3.587504 12.859148 6.695112 -7.125875 
0.022538 0.000661 0.004970 175.454375 34.213738 -14.953771 -2.447133 -5.105631 -6.074012 -1.522185 -8.842201 19.797641 -0.981470 9.588953 -8.248789 4.284966 6.060273 -9.504080 1.268565 -1.633717 9.690767 2.899179 8.235836 -5.280396 7.521747 -12.075192 -10.483737 -14.810819 8.129361 2.608820 5.879243 1.432603 7.992059 1.140281 -3.303072 0.390103 1.208440 -2.239772 4.660958 -8.192687 4.582530 -16.864516 -8.005863 1.455383 0.428779 -27.177817 3.156430 3.702162 -54.897500 0.502835 8.344776 2.444006 -4.619638 13.016309 -8.434126 -1.148718 -2.530659 -10.513570 -4.715296 -10.112913 28.263106 0.133970 4.921488 48.096136 -3.369946 13.113258 -3.676917 7.667976 -1.582323 5.676506 -1.265697 -2.891754 13.565502 7.279011 -6.741468 
0.024296 0.001071 0.011415 175.040752 35.217412 -15.968744 -1.770558 -5.173817 -14.238712 -1.664447 -1.321327 26.864480 2.198945 10.889896 -8.247885 1.148327 8.029633 -8.620563 1.431683 -2.897824 11.382600 3.168676 8.158974 -5.722928 5.795656 -11.932071 -10.866911 -12.531880 8.714246 3.500981 5.685402 3.261199 10.130918 1.229830 -3.487359 0.408980 1.422507 -1.498489 4.001951 -8.108327 5.963397 -16.291117 -7.510946 3.092872 1.735255 -28.154653 -2.545418 2.977136 -51.889801 -4.584676 8.308007 1.638645 -4.416929 13.126765 -9.173935 0.692958 1.164039 -10.930390 -5.203496 -9.871223 29.255652 4.279347 6.189889 46.106325 -0.236635 13.641515 -3.165535 5.842326 -0.148347 5.799183 -1.835343 1.070539 14.286926 7.970863 -7.422886 
0.020632 -0.000500 0.024205 175.359050 34.935806 -15.888094 -1.360705 -3.701774 -16.945886 -2.847268 1.318939 15.458393 0.430781 8.281856 -4.570923 2.257098 9.224292 -7.072489 1.370466 -3.531989 12.402129 3.054854 8.007832 -5.251779 5.283130 -11.421930 -11.901743 -10.600967 9.834363 3.969490 5.258435 3.884700 11.290972 0.760418 -3.627871 0.556398 1.138703 -0.761109 2.987203 -7.141317 8.071282 -15.584335 -6.888318 2.773226 4.245302 -27.895174 -7.726145 1.725022 -50.573143 -10.030099 9.175977 2.156148 -7.750286 11.484248 -7.328539 0.515802 3.343053 -10.092068 -5.068673 -9.600106 28.399433 9.175804 5.822299 44.157388 5.580340 14.067999 -3.499967 7.378798 0.517172 5.152587 -1.257655 4.504409 13.375202 7.721119 -7.385124 
0.005698 -0.000825 0.048597 175.321580 32.767813 -15.689885 -0.515812 -2.903281 -16.763747 -3.693677 0.326856 2.831320 -2.825389 5.646345 -0.781283 4.823543 9.807974 -5.640336 1.239828 -3.617175 14.222649 3.383560 8.513464 -4.988541 4.566853 -9.602845 -14.206528 -7.756138 9.692210 5.510014 5.393597 4.230543 11.700050 0.453096 -3.611862 1.155968 0.979981 0.065252 1.508451 -6.320063 10.219980 -14.692346 -6.990036 2.407754 5.837229 -28.460998 -11.799629 0.554342 -50.803529 -14.287215 10.354705 4.071318 -12.750271 7.141809 -4.854587 -0.526474 2.558536 -9.436607 -4.703581 -8.957757 27.702590 13.413198 4.974552 41.508669 11.762212 12.816783 -5.298209 11.226338 -3.526591 3.805780 -0.188923 3.570532 12.389097 7.222564 -7.021767 
-0.020774 -0.001329 0.084949 175.368439 29.451594 -14.619201 0.793214 -2.718383 -17.739629 -3.709634 1.136106 4.092527 -4.793082 4.782988 2.847111 5.821991 10.369897 -6.550064 1.045464 -3.216475 16.012265 3.258218 9.441619 -4.595987 2.847525 -7.207554 -16.611520 -5.255650 7.870041 6.729506 5.113036 5.062185 10.918430 0.268501 -3.381405 1.341826 0.824835 0.818598 0.303370 -4.950996 11.120549 -13.730310 -6.420698 2.387279 6.534260 -28.993861 -14.028738 -0.170565 -52.979024 -16.824148 12.461342 5.333625 -18.765888 6.457707 -4.334403 -1.419287 2.055665 -9.511330 -4.253586 -8.240085 27.393197 16.143503 4.117152 41.410208 16.743125 11.721691 -7.563594 14.757439 -6.828397 3.089697 0.376561 1.576462 11.793534 6.808614 -6.741722 
